<svg	xmlns="http://www.w3.org/2000/svg"
		viewBox="0 0 76 94">
	<path xmlns:sodipodi="http://sodipodi.sourceforge.net/DTD/sodipodi-0.dtd" style="fill:#0587a5; fill-opacity:1;stroke:none;stroke-width:0.6485278px;stroke-linecap:butt;stroke-linejoin:miter;stroke-opacity:1" d="m 55.838075,0.33641532 c -1.619606,-0.05049 -3.372506,0.206385 -4.314227,0.339457 -1.883447,0.266144 -12.750654,2.82112698 -20.263965,4.68410698 -7.513317,1.862981 -14.14969,4.098263 -21.08222,6.9564747 -3.3867804,1.396335 -8.5006088,3.513743 -9.62658136,5.274339 -1.12597503,1.760622 0.28797822,2.655063 1.08552406,2.979176 1.3593469,0.55246 3.7517393,0.24977 5.2414194,-0.06079 4.2912519,-0.894589 8.8235069,-2.62033 11.9762349,-3.664413 3.10709,-1.028984 9.765765,-2.940865 9.960978,-2.996922 -0.411743,0.260923 -0.359194,1.53698 -0.846127,3.590977 -0.892932,3.766625 -2.751211,9.449077 -4.314227,13.019955 -2.463382,5.627817 -6.408013,13.14283 -6.408013,13.14283 0,0 -1.073521,0.07721 -1.584589,0.137999 -0.511065,0.06079 -1.280153,0.310435 -1.289453,1.061461 -0.0083,0.675041 0.575787,0.856792 0.81826,0.918316 0.242466,0.06152 0.778991,0.06446 0.778991,0.06446 l -1.573186,2.491523 c 0,0 -2.149532,3.126733 -4.5928927,4.879143 -0.522615,0.374827 -0.9046307,0.699797 -1.214723,0.819535 -0.1503768,0.05809 -0.7087243,0.229671 -0.8955273,0.339457 -0.1278264,0.075 -0.1981738,0.373209 0.1329982,0.548464 0.2374164,0.125743 0.6481912,0.17256 1.0158606,0.168393 0.5516755,-0.0049 1.5153362,-0.166187 2.2153762,-0.443336 1.683534,-0.666413 3.190162,-1.747777 4.611895,-2.868972 1.193525,-0.941209 2.794787,-2.630135 3.245177,-3.203356 0.450382,-0.573221 2.364841,-3.032389 2.364841,-3.032389 0,0 4.351416,-0.15246 6.071083,-0.224279 1.719671,-0.07157 2.496632,-0.224278 3.499769,-0.336932 1.003149,-0.112507 2.026649,-0.265996 2.026649,-0.265996 -0.0091,0.03628 0.121748,4.304305 0.145671,10.087645 0.01789,4.323987 -0.110252,9.444321 -0.314127,14.551346 -0.485554,12.162503 -1.895556,14.849626 -2.254749,15.575871 -0.359961,0.727814 -0.778993,1.329983 -0.778993,1.329983 -0.679326,0.317151 -6.158162,-2.783698 -9.013595,-4.571306 -3.022534,-1.892223 -5.608445,-4.076767 -8.520749,-6.468626 -0.849154,-0.697396 -2.4426327,-1.593994 -3.0799826,-1.08411 -0.8573852,0.685924 1.0514386,4.684425 2.0531416,6.199369 1.734906,2.618492 3.485588,4.573022 6.161983,7.129329 1.474001,1.412586 4.298449,3.833688 6.712009,5.104647 1.7853,0.940131 4.677938,2.060812 7.014396,1.539922 1.839459,-0.410074 3.265636,-1.589851 4.484435,-3.443223 1.29589,-1.97061 2.204362,-4.74965 2.531921,-8.229959 0.327551,-3.48026 0.555899,-8.581769 0.582395,-12.901812 C 38.648976,61.6737 38.469114,53.984264 38.274002,46.186072 38.141714,40.89835 37.741055,33.748358 37.393029,30.165714 c -0.348026,-3.582668 -0.847392,-7.421356 -0.847392,-7.421356 0,0 1.107589,3.270468 2.315452,5.542885 1.207864,2.272441 2.777839,4.013478 4.661294,5.078028 1.883443,1.06455 4.585922,1.429082 6.16228,0.896795 1.576363,-0.532263 2.825103,-1.40913 3.787298,-2.9855 0.962196,-1.57637 1.484585,-3.889966 1.730252,-5.773413 0.245669,-1.883472 0.296398,-3.72525 0.296398,-3.72525 0,0 2.008543,5.662769 3.8101,9.613915 1.801558,3.951146 3.68629,7.777604 6.268684,11.18205 0.947459,1.249071 2.021086,2.603368 3.331305,3.319907 1.310228,0.716538 2.824416,0.695973 3.602365,0.511722 0.777941,-0.184323 2.047219,-0.818087 2.395245,-1.841703 0.348026,-1.023616 0.471806,-1.761357 -0.469928,-2.825906 -0.941701,-1.064575 -1.871834,-1.257062 -2.404113,-1.707457 -0.532278,-0.450395 -3.228787,-4.763009 -4.354759,-6.994492 -1.125975,-2.231483 -4.235548,-8.125786 -5.259159,-10.500562 -1.023619,-2.374776 -4.157603,-8.311508 -4.996952,-9.601243 -0.83937,-1.28976 -1.9834,-1.740228 -2.88418,-1.883521 -0.900777,-0.143391 -2.027253,0.06128 -2.723309,0.511722 -0.69606,0.450395 -1.457949,1.740032 -1.580787,2.784115 -0.122826,1.044083 -0.730956,6.243221 -1.099457,10.665229 -0.182216,1.355278 -0.360016,3.266693 -0.708062,4.551109 -0.379648,1.401065 -1.131507,0.934762 -1.683384,0.727053 -0.626873,-0.235798 -1.80292,-1.027096 -2.420578,-1.799912 -1.462814,-1.830307 -2.518978,-3.914404 -3.742971,-5.893764 -1.219111,-1.971443 -2.511665,-4.540545 -3.585899,-5.957076 -1.4392,-1.897787 -2.622725,-2.421667 -3.052645,-2.564984 -0.429916,-0.143391 -0.81251,-1.151908 -1.636516,-1.202058 -0.158711,-0.0098 0.07081,-0.05025 0.158318,-0.07231 0.190061,-0.0478 0.318441,-0.07598 0.442064,-0.107604 5.012237,-1.280985 11.723812,-2.8706147 14.405676,-3.4643027 2.681866,-0.593688 7.206287,-1.55556 9.069255,-2.804385 1.748334,-1.033838 3.820689,-2.368134 2.969042,-4.585278 C 58.943643,0.74393432 57.457678,0.38633932 55.83807,0.33594432 Z M 31.437218,23.848084 c 0,0 0.587726,3.283164 0.911991,8.106594 0.324265,4.823429 0.547195,10.092719 0.547195,10.092719 0,0 -1.905049,0.486402 -4.924759,0.749873 -3.019707,0.263448 -5.228755,0.385048 -5.228755,0.385048 0,0 2.229316,-3.850625 4.215431,-8.086323 1.986116,-4.235697 4.478897,-11.247911 4.478897,-11.247911 z" id="logo_path"></path>
</svg>