<?xml version="1.0" encoding="UTF-8" standalone="no"?>
<!-- Created with Inkscape (http://www.inkscape.org/) -->

<svg
   width="84.478699mm"
   height="110.88021mm"
   viewBox="0 0 84.478699 110.88021"
   version="1.1"
   id="svg1"
   xml:space="preserve"
   xmlns="http://www.w3.org/2000/svg"
   xmlns:svg="http://www.w3.org/2000/svg"><defs
     id="defs1" /><g
     id="layer1"
     transform="translate(-114.02777,-132.8791)"><path
       id="path21"
       style="fill:none;stroke:#000000;stroke-width:4.465;stroke-linecap:round;stroke-linejoin:round;stroke-dasharray:none;stroke-opacity:1"
       d="m 124.17009,204.36355 c 5.54639,4.67064 6.71405,5.91128 16.05534,6.56809 9.34129,0.65681 11.60363,0.80277 12.55235,-0.21894 0.94873,-1.0217 0.073,-3.06511 -2.18936,-8.39256 0,0 4.23277,-4.15979 6.34916,-5.10851 m -16.54942,-57.93295 c 6.26986,1.10948 14.73289,4.72175 16.281,6.45048 1.54812,1.72872 1.67713,1.67712 1.54812,5.13457 -0.12901,3.45746 -1.2901,37.9288 -1.18689,44.22447 0.10321,6.29566 1.75453,11.92048 6.29566,18.26775 4.54114,6.34726 8.77265,8.2566 12.74614,9.46929 3.9735,1.21269 8.43723,1.16109 10.99161,1.41911 2.55439,0.25802 5.59902,-0.33542 7.09553,4.28312 m -52.71243,-2.0405 -4.5543,-68.00329 c 0,0 -2.45825,-0.33052 -4.1315,-2.04509 -1.67326,-1.71458 -2.28087,-16.69548 -2.28087,-17.13411 0,-0.43863 -0.49024,-3.89609 4.15411,-4.15411 4.64434,-0.25802 4.97976,1.03208 5.21198,3.71548 0.23222,2.6834 0.90307,12.15269 0.92887,13.88142 0.0258,1.72873 0.51604,2.37378 -1.62552,4.36052 -2.14156,1.98675 -2.32217,1.3159 -2.32217,1.3159 m -11.33784,66.82502 c 0,0 19.8312,2.23101 21.15328,2.4789 1.32208,0.24789 4.76396,2.35982 6.6104,3.47046 5.42696,3.26431 10.21319,4.35963 15.4518,4.54465 4.87494,0.17217 10.05166,-0.34752 15.45181,-1.90049 5.64325,-1.62288 7.91435,-3.6124 10.14536,-3.695 2.23101,-0.0826 2.16651,3.03396 1.5881,4.10815 -0.57841,1.07419 -3.55309,2.56153 -9.50245,4.37939 -4.86876,1.48768 -7.76722,2.31364 -17.02178,2.4789 -4.44137,0.0793 -10.79223,-1.26593 -15.12129,-3.47046 -2.80383,-1.42783 -8.51088,-4.79254 -8.51088,-4.79254 l 0.33052,7.27144 -14.95603,1.40471 c 0,0 -4.21413,-9.41982 -6.52777,-15.78233 -2.31364,-6.36251 -1.98312,-11.65083 -1.32208,-15.53444 0.66104,-3.88361 0.99156,-7.84985 0.99156,-8.34563 0,-0.49578 -7.18881,-47.34698 -7.18881,-47.34698 -0.54,-2.59583 -1.70108,-4.27295 0.41467,-6.90474 2.11576,-2.6318 9.34029,-6.83751 12.72034,-7.53416" /></g></svg>
