<?xml version="1.0" encoding="UTF-8" standalone="no"?>
<!-- Created with Inkscape (http://www.inkscape.org/) -->

<svg
   width="65.889679mm"
   height="46.018398mm"
   viewBox="0 0 65.889679 46.018398"
   version="1.1"
   id="svg1"
   xml:space="preserve"
   xmlns="http://www.w3.org/2000/svg"
   xmlns:svg="http://www.w3.org/2000/svg"><defs
     id="defs1" /><g
     id="layer1"
     transform="translate(-292.49595,66.740733)"><circle
       style="fill:none;fill-opacity:1;stroke:#000000;stroke-width:4.59999;stroke-linecap:round;stroke-linejoin:round;stroke-dasharray:none;stroke-opacity:1;paint-order:markers fill stroke"
       id="path31"
       cx="308.20883"
       cy="-29.590258"
       r="6.5679317" /><circle
       style="fill:none;fill-opacity:1;stroke:#000000;stroke-width:4.59999;stroke-linecap:round;stroke-linejoin:round;stroke-dasharray:none;stroke-opacity:1;paint-order:markers fill stroke"
       id="circle31"
       cx="341.18677"
       cy="-29.590258"
       r="6.5679317" /><path
       id="path35"
       style="fill:none;stroke:#000000;stroke-width:4.6;stroke-linecap:butt;stroke-linejoin:miter;stroke-dasharray:none;stroke-opacity:1"
       d="m 319.40889,-64.434867 v 17.284033 m -19.9112,-0.20741 c 0,0 4.14817,-11.753141 4.97779,-13.827225 0.82963,-2.074082 3.11113,-3.249398 4.9778,-3.249398 1.86668,0 16.66181,0 19.56554,0 2.90369,0 2.28147,-0.207407 4.2173,2.212355 1.93579,2.419766 11.61486,14.656859 11.61486,14.656859 m -30.35075,16.454397 h 19.98033 m -32.14831,0 h -2.90369 c -4.56304,0 -4.63214,-3.871621 -4.63214,-5.323479 v -6.63707 c 0,-2.627173 2.00495,-4.770398 5.32349,-4.770398 h 44.80021 c 5.80743,0 11.16549,5.876571 11.16549,9.713628 v 2.661744 c 0,1.520994 -1.39371,4.104414 -4.03268,4.104414 -2.63896,0 -5.12786,-0.09452 -5.12786,-0.09452" /></g></svg>
