<?xml version="1.0" encoding="UTF-8" standalone="no"?>
<!-- Created with Inkscape (http://www.inkscape.org/) -->

<svg
   width="73.243752mm"
   height="105.18119mm"
   viewBox="0 0 73.243752 105.18119"
   version="1.1"
   id="svg1"
   xml:space="preserve"
   xmlns="http://www.w3.org/2000/svg"
   xmlns:svg="http://www.w3.org/2000/svg"><defs
     id="defs1" /><g
     id="layer1"
     transform="translate(-525.08167,-8.6952546)"><path
       style="fill:#000000"
       d="m 542.3736,113.67476 c -0.7544,-0.30108 -1.53227,-1.00741 -1.8972,-1.72274 -0.48216,-0.94511 -0.69951,-2.30333 -1.42036,-8.87573 -0.33774,-3.079404 -0.6538,-5.663189 -0.70235,-5.741745 -0.0486,-0.07856 -0.2063,-0.142829 -0.35056,-0.142829 -0.50238,0 -3.78907,-1.028674 -5.19352,-1.625474 -1.50715,-0.64044 -4.05115,-2.096378 -4.05115,-2.31848 0,-0.07342 0.38595,-1.1009 0.85767,-2.283288 2.42966,-6.090071 4.19128,-13.100749 4.91164,-19.546808 l 0.28518,-2.551886 0.67299,-0.224743 c 0.73539,-0.24558 4.99729,-1.508905 7.56308,-2.241868 0.88891,-0.253932 2.95593,-0.864448 4.59339,-1.356702 1.63747,-0.492254 3.35286,-0.997111 3.81199,-1.121905 l 0.83478,-0.226899 0.79672,0.884801 c 0.4382,0.48664 1.86163,2.067534 3.16317,3.513097 1.30155,1.445564 4.55302,4.89061 7.22549,7.655659 2.67246,2.765049 5.56831,5.770425 6.43521,6.678613 l 1.57619,1.651251 -1.21397,1.712187 c -2.26222,3.190639 -3.61874,4.506562 -6.89294,6.686626 -1.46915,0.978202 -5.05499,2.839624 -5.47652,2.842874 -0.40278,0.0031 -0.38068,0.324069 0.10128,1.471054 1.40131,3.334835 3.16777,6.663875 5.07091,9.556495 0.69631,1.05835 1.37501,2.1851 1.50821,2.50389 0.60185,1.44044 -0.0412,3.41657 -1.43317,4.40404 -0.67106,0.47607 -0.86039,0.52473 -2.04151,0.52473 -1.16785,0 -1.38064,-0.0531 -2.06741,-0.51588 -1.66191,-1.11988 -6.23279,-8.98419 -8.35218,-14.370126 -0.31297,-0.795338 -0.58362,-1.471071 -0.60144,-1.50163 -0.0178,-0.03056 -0.91969,0.04177 -2.00417,0.160726 l -1.97177,0.216286 v 0.377863 c 0,0.419571 1.12945,10.502391 1.2883,11.500941 0.23694,1.48938 -0.75454,3.22742 -2.22399,3.89859 -0.7367,0.33649 -2.12228,0.40029 -2.80199,0.12901 z m 26.70974,0 c -0.68204,-0.27219 -1.47697,-0.95064 -1.88229,-1.60646 -0.33983,-0.54985 -0.64888,-1.79186 -1.43699,-5.77486 -0.47617,-2.40649 -1.60965,-9.737243 -1.70981,-11.05817 l -0.10321,-1.361006 1.15235,-0.765566 c 1.69558,-1.126467 3.33502,-2.579297 4.53255,-4.016645 0.58218,-0.698768 1.07617,-1.171814 1.09776,-1.051213 0.0216,0.120601 0.30914,2.477694 0.63901,5.237984 0.61616,5.155985 1.17686,8.601856 2.2373,13.749746 0.68564,3.3284 0.67395,3.9581 -0.096,5.17221 -0.84947,1.33948 -2.98639,2.05039 -4.43066,1.47398 z m 24.4178,-0.74507 c -0.36887,-0.1314 -0.86649,-0.37987 -1.10582,-0.55216 -0.43537,-0.3134 -3.75537,-5.19036 -6.3138,-9.27475 -3.88823,-6.207323 -7.24313,-12.790473 -9.7396,-19.111521 -1.02312,-2.590539 -3.16297,-8.907818 -3.7116,-10.957399 -0.18785,-0.701768 -0.39404,-1.325696 -0.4582,-1.386505 -0.0642,-0.06081 -0.69084,0.05403 -1.39261,0.255189 l -1.27594,0.365751 0.061,1.361005 c 0.0335,0.748554 0.14934,2.5604 0.25731,4.026326 0.13046,1.771136 0.13853,2.627264 0.0241,2.551886 -0.0947,-0.06239 -1.51035,-1.491452 -3.14582,-3.175697 -1.63546,-1.684244 -3.01348,-3.102758 -3.06226,-3.152252 -0.0488,-0.0495 -0.45671,-0.477629 -0.90651,-0.951411 l -0.81783,-0.861422 -0.15724,-3.81211 c -0.0865,-2.09666 -0.28213,-5.525576 -0.43476,-7.619812 -0.34946,-4.794889 -0.25918,-12.757566 0.19653,-17.333471 l 0.30951,-3.107845 -2.64382,-2.538661 C 553.59906,32.292292 548.9811,26.154107 544.99182,18.790941 l -1.22959,-2.269506 0.33193,-0.750395 c 0.7557,-1.708379 0.54553,-3.336961 -0.61311,-4.750924 l -0.5949,-0.725997 0.33729,-0.4287884 c 1.16304,-1.4785689 4.20632,-1.5764509 5.47273,-0.176021 0.1585,0.175275 1.01553,1.7719714 1.90452,3.5482124 3.55178,7.096653 7.6894,12.812545 13.36001,18.456125 3.27102,3.25543 4.91267,4.586724 6.53428,5.298959 1.25435,0.55093 4.52665,1.56344 7.03525,2.176833 1.20146,0.293776 1.71688,0.514579 2.23357,0.956843 0.36943,0.316216 2.38171,2.816187 4.47174,5.555491 7.45191,9.766858 6.96166,9.023472 6.95533,10.546706 -0.005,1.112649 -0.43674,2.098699 -1.22176,2.787951 -0.65185,0.572333 -2.8995,1.447419 -11.19369,4.358082 -7.04875,2.473604 -7.25104,2.524323 -8.59135,2.154047 -1.8162,-0.501748 -2.86748,-3.128102 -1.96231,-4.902376 0.52582,-1.030692 1.50602,-1.741046 3.35086,-2.428376 0.92055,-0.342966 2.5924,-0.978212 3.71523,-1.411656 1.12283,-0.433445 2.88363,-1.09786 3.91289,-1.476478 1.02926,-0.378618 1.93641,-0.748479 2.01589,-0.821913 0.0795,-0.07343 -0.68608,-1.222061 -1.70125,-2.552505 l -1.84577,-2.418989 -0.0851,2.444283 -0.0851,2.444283 -2.38176,0.90065 c -1.30997,0.495357 -3.10574,1.164053 -3.9906,1.485991 -0.88486,0.321939 -1.95401,0.798746 -2.37588,1.059573 -2.70644,1.673261 -3.15033,5.59041 -0.898,7.924354 0.88807,0.920242 1.7983,1.341488 3.0964,1.432984 0.95768,0.0675 1.3793,-0.01299 3.14733,-0.600821 1.12283,-0.373321 2.55384,-0.876883 3.18003,-1.119028 1.04075,-0.402456 1.14606,-0.41514 1.22633,-0.147704 0.0483,0.160908 0.27813,1.145239 0.51074,2.187404 1.47328,6.600798 4.51326,14.857683 8.11718,22.04705 2.21796,4.424556 3.79863,7.113468 8.22501,13.991725 1.38338,2.14966 2.62062,4.20718 2.74943,4.57226 0.34249,0.97073 0.28464,1.95159 -0.17309,2.93463 -0.45508,0.97733 -1.12434,1.53031 -2.26902,1.87481 -0.96007,0.28894 -1.30653,0.28589 -2.16244,-0.019 z M 530.67071,67.571103 c -1.12535,-0.557039 -1.48694,-1.19373 -1.48694,-2.618216 0,-0.974501 0.072,-1.291808 0.3962,-1.746355 0.63029,-0.883688 0.49668,-0.83494 9.72628,-3.548509 1.45033,-0.426404 3.36424,-0.99755 4.25315,-1.269211 0.8889,-0.271662 2.44405,-0.737743 3.45588,-1.035736 1.65966,-0.488787 1.83108,-0.576294 1.75183,-0.894266 -0.0483,-0.193854 -0.17889,-0.905305 -0.29015,-1.581002 -0.11126,-0.675697 -0.26491,-1.189845 -0.34143,-1.142552 -0.0765,0.04729 -0.27181,0.506908 -0.43398,1.021364 l -0.29485,0.935375 -2.3915,0.748665 c -1.31532,0.411766 -4.14006,1.263915 -6.27719,1.893664 -3.23733,0.953945 -3.91331,1.104882 -4.05121,0.90458 -0.099,-0.143744 -0.13113,-1.266553 -0.08,-2.792304 0.0922,-2.749879 0.35356,-4.115204 1.29997,-6.790121 0.47889,-1.353545 0.50707,-1.532662 0.26266,-1.669444 -0.52674,-0.294777 -2.32136,-1.859046 -3.50952,-3.05905 -3.24531,-3.277661 -6.43368,-8.657092 -7.38004,-12.451659 -0.33312,-1.335719 -0.2584,-2.063125 0.31636,-3.079719 0.31352,-0.554548 5.99813,-8.76009 11.1742,-16.12959 1.31283,-1.869159 1.94437,-2.329053 3.19833,-2.329053 2.21955,0 3.65701,2.033065 2.83257,4.006231 -0.23184,0.55486 -3.11889,4.793101 -6.31028,9.263576 -1.47072,2.060172 -1.95076,2.74972 -3.94715,5.669843 l -1.23325,1.803884 0.33637,0.853391 c 1.21692,3.087346 3.38686,6.303528 5.82255,8.629912 1.17446,1.121755 1.12114,1.101291 3.70806,1.42318 0.79533,0.09896 3.28342,0.490854 5.52908,0.870868 4.64148,0.785438 5.22917,1.008435 5.84424,2.2176 0.33328,0.655188 2.34263,10.197638 2.67517,12.704461 0.19512,1.47091 -0.49071,2.766107 -1.74624,3.29778 -0.35675,0.151071 -2.86878,0.926357 -5.58229,1.722859 -2.7135,0.796502 -5.8906,1.731445 -7.06021,2.077651 -1.16962,0.346206 -2.85386,0.837248 -3.74277,1.091204 -0.88891,0.253955 -2.29463,0.663775 -3.12383,0.910711 -1.82206,0.54261 -2.35624,0.557176 -3.30008,0.08999 z m 12.80362,-27.598661 c -2.0384,-0.516421 -3.47502,-1.713043 -4.39975,-3.664753 -0.48319,-1.019802 -0.53254,-1.275004 -0.51963,-2.687392 l 0.0143,-1.560585 -0.77983,-0.195861 c -1.61409,-0.405396 -2.93476,-2.433584 -2.66858,-4.098218 0.32774,-2.049553 1.77512,-3.286269 3.85854,-3.296941 1.57389,-0.0081 2.59338,0.614103 3.28982,2.007681 0.44987,0.900198 0.53702,0.983315 0.93569,0.892347 2.60265,-0.59388 4.78895,0.04089 6.46785,1.877864 2.46579,2.697977 2.08078,7.315688 -0.79292,9.50992 -1.48405,1.133131 -3.73432,1.63932 -5.40549,1.215938 z m 27.01187,-4.900381 c -4.09353,-0.482395 -7.05911,-4.619236 -6.3574,-8.868251 0.66445,-4.023385 4.60435,-6.909996 8.52806,-6.248177 3.30438,0.557356 5.76546,3.033276 6.3381,6.37632 0.46705,2.726619 -0.88288,5.90286 -3.18068,7.483828 -1.57684,1.084917 -3.31149,1.493922 -5.32808,1.25628 z"
       id="path37" /></g></svg>
