<?xml version="1.0" encoding="UTF-8" standalone="no"?>
<!-- Created with Inkscape (http://www.inkscape.org/) -->

<svg
   width="101.39549mm"
   height="101.39551mm"
   viewBox="0 0 101.39549 101.39551"
   version="1.1"
   id="svg1"
   xml:space="preserve"
   xmlns="http://www.w3.org/2000/svg"
   xmlns:svg="http://www.w3.org/2000/svg"><defs
     id="defs1" /><g
     id="layer1"
     transform="translate(-749.18513,106.42849)"><circle
       style="fill:none;fill-opacity:1;stroke:#000000;stroke-width:4.59999;stroke-linecap:round;stroke-linejoin:round;stroke-dasharray:none;stroke-opacity:1;paint-order:markers fill stroke"
       id="path46"
       cx="799.88287"
       cy="-55.730747"
       r="48.397755" /><path
       style="fill:none;stroke:#000000;stroke-width:3.48548;stroke-linecap:butt;stroke-linejoin:miter;stroke-dasharray:none;stroke-opacity:1"
       d="m 800.17622,-101.97749 10.08445,32.259239 -10.38999,13.889731 -9.98474,-14.169452 z m -44.09379,31.60805 33.79663,0.377771 9.99923,14.17363 -16.5614,5.117451 z m 16.43531,51.703108 10.80302,-32.025763 16.56985,-5.129946 -0.25077,17.332211 z m 54.25137,0.346229 -27.11999,-20.170781 0.2415,-17.344112 16.40642,5.594445 z M 843.86299,-69.80923 816.2989,-50.249695 799.8783,-55.839 810.26879,-69.713653 Z"
       id="path47"
       transform="matrix(0.89157219,0,0,0.89157219,86.740425,-5.8444217)" /><path
       style="fill:#000000;fill-opacity:1;stroke:#000000;stroke-width:3.48598;stroke-linecap:butt;stroke-linejoin:miter;stroke-dasharray:none;stroke-opacity:1"
       d="m 800.17622,-101.97749 -0.30554,46.14897 -9.98474,-14.169452 z m -44.09379,31.60805 43.79586,14.551401 -16.5614,5.117451 z m 16.43531,51.703108 27.37287,-37.155709 -0.25077,17.332211 z m 54.25137,0.346229 -26.87849,-37.514893 16.40642,5.594445 z M 843.86299,-69.80923 799.8783,-55.839 810.26879,-69.713653 Z"
       id="path48"
       transform="matrix(0.89157219,0,0,0.89157219,86.740425,-5.8444217)" /></g></svg>
