<?xml version="1.0" encoding="UTF-8" standalone="no"?>
<!-- Created with Inkscape (http://www.inkscape.org/) -->

<svg
   width="53.850975mm"
   height="67.935638mm"
   viewBox="0 0 53.850975 67.935638"
   version="1.1"
   id="svg1"
   xml:space="preserve"
   xmlns="http://www.w3.org/2000/svg"
   xmlns:svg="http://www.w3.org/2000/svg"><defs
     id="defs1" /><g
     id="layer1"
     transform="translate(-299.934,5.9448152)"><path
       id="path29"
       style="fill:none;stroke:#000000;stroke-width:4.6;stroke-linecap:round;stroke-linejoin:round;stroke-dasharray:none;stroke-opacity:1"
       d="m 302.23398,46.224946 3.22866,-3.386156 c 0,0 -0.31499,-10.867191 1.73245,-16.773276 2.04744,-5.906082 11.41843,-27.01048711 11.96966,-28.3492001 0.55124,-1.338712 2.12619,-1.496208 3.07117,-1.259964 0.94497,0.236243 2.59867,0.787478 2.20493,3.22865899 -0.39374,2.44118101 -2.51993,19.68694411 -2.51993,19.68694411 m -4.56737,40.318864 c 6.29983,-6.221076 7.40229,-5.276101 7.2448,-14.804583 -0.1575,-9.528482 -0.23625,-19.135711 -0.1575,-21.734388 0.0787,-2.598677 -2.67742,-3.14991 -4.01613,-3.14991 -1.33872,0 -4.01614,0.472485 -4.09489,2.913669 -0.0787,2.44118 0.0788,11.339679 0.0788,11.339679" /><path
       id="path30"
       style="fill:none;stroke:#000000;stroke-width:4.6;stroke-linecap:round;stroke-linejoin:round;stroke-dasharray:none;stroke-opacity:1"
       d="m 351.48497,46.224946 -3.22866,-3.386156 c 0,0 0.31499,-10.867191 -1.73245,-16.773276 -2.04744,-5.906082 -11.41843,-27.01048711 -11.96966,-28.3492001 -0.55124,-1.338712 -2.12619,-1.496208 -3.07117,-1.259964 -0.94497,0.236243 -2.59867,0.787478 -2.20493,3.22865899 0.39374,2.44118101 2.51993,19.68694411 2.51993,19.68694411 m 4.56737,40.318864 c -6.29983,-6.221076 -7.40229,-5.276101 -7.2448,-14.804583 0.1575,-9.528482 0.23625,-19.135711 0.1575,-21.734388 -0.0787,-2.598677 2.67742,-3.14991 4.01613,-3.14991 1.33872,0 4.01614,0.472485 4.09489,2.913669 0.0787,2.44118 -0.0788,11.339679 -0.0788,11.339679" /></g></svg>
