<?xml version="1.0" encoding="UTF-8" standalone="no"?>
<!-- Created with Inkscape (http://www.inkscape.org/) -->

<svg
   width="63.831566mm"
   height="71.661385mm"
   viewBox="0 0 63.831566 71.661385"
   version="1.1"
   id="svg1"
   xml:space="preserve"
   xmlns="http://www.w3.org/2000/svg"
   xmlns:svg="http://www.w3.org/2000/svg"><defs
     id="defs1" /><g
     id="layer1"
     transform="translate(-690.5847,-57.227576)"><path
       style="fill:#000000"
       d="m 723.43352,82.805531 c 1.12213,-0.283819 2.16088,-1.112677 2.65976,-2.122331 0.22093,-0.447127 0.30623,-0.757336 0.45453,-1.652837 0.30133,-1.819642 0.79581,-6.265533 1.25315,-11.267161 0.42705,-4.670417 0.44583,-5.027321 0.30668,-5.830388 -0.38504,-2.222298 -1.97545,-3.956197 -4.18716,-4.564923 -0.7237,-0.199182 -2.1482,-0.18402 -2.90169,0.03089 -2.1559,0.614904 -3.70548,2.33746 -4.08784,4.544183 -0.13713,0.79137 -0.11745,1.16257 0.30843,5.820242 0.72115,7.886747 1.23811,11.91379 1.64334,12.801397 0.44166,0.967396 1.35266,1.783786 2.38072,2.133479 0.61618,0.209592 1.57797,0.257216 2.17008,0.107453 z"
       id="path44" /><path
       style="fill:#000000"
       d="m 711.2632,89.831506 c 1.85075,-0.519685 3.10919,-2.283457 2.95243,-4.13797 -0.088,-1.040614 -0.54605,-1.958991 -1.33314,-2.67271 -1.14644,-1.039567 -8.34702,-6.278455 -12.68782,-9.231218 -1.52347,-1.036314 -2.28951,-1.356194 -3.54842,-1.481726 -1.3052,-0.130147 -2.99555,0.418502 -4.03131,1.30847 -1.33289,1.145275 -2.03072,2.628321 -2.02878,4.311607 0.002,1.842018 0.86603,3.543719 2.32909,4.587735 0.97172,0.693407 10.88938,5.21425 15.11552,6.890226 l 1.21977,0.483729 0.81318,0.02516 c 0.55927,0.01731 0.93381,-0.0087 1.19948,-0.08331 z"
       id="path43" /><path
       style="fill:#000000"
       d="m 735.67891,89.886676 c 0.8624,-0.158853 10.42797,-4.352933 14.96991,-6.563646 1.75179,-0.85265 2.51824,-1.522082 3.17227,-2.770717 0.47618,-0.909103 0.59828,-1.455109 0.59515,-2.661318 -0.003,-0.975558 -0.0212,-1.125084 -0.20757,-1.663324 -0.74286,-2.145392 -2.50969,-3.588125 -4.76107,-3.887728 -1.09427,-0.14562 -2.3224,0.09276 -3.34519,0.649304 -1.53525,0.835391 -12.40977,8.653835 -13.9293,10.014734 -0.90415,0.809765 -1.33359,1.769972 -1.33359,2.981857 0,0.577698 0.0371,0.847344 0.16953,1.23385 0.44249,1.290958 1.49307,2.270728 2.79978,2.611083 0.39521,0.102939 1.44445,0.134305 1.87008,0.0559 z"
       id="path42" /><path
       style="fill:#000000"
       d="m 697.05284,113.73664 c 0.54165,-0.0788 1.26903,-0.30856 1.75273,-0.55366 1.30348,-0.66053 12.65431,-8.81236 14.07692,-10.10964 1.72751,-1.57531 1.8041,-4.123742 0.17301,-5.756524 -0.85666,-0.857544 -1.81854,-1.213485 -3.10233,-1.147999 -0.65062,0.03319 -0.7929,0.07155 -1.9224,0.51834 -2.84,1.123408 -10.39013,4.492303 -13.71318,6.118863 -1.67891,0.82179 -2.45773,1.50902 -3.09783,2.73351 -0.72694,1.3906 -0.83702,3.10965 -0.2929,4.57373 0.71768,1.93109 2.4942,3.33812 4.58123,3.6284 0.63167,0.0879 0.91254,0.087 1.54475,-0.005 z"
       id="path41" /><path
       style="fill:#000000"
       d="m 749.61885,113.74064 c 2.12049,-0.32786 3.87371,-1.80876 4.58982,-3.87689 0.18637,-0.53824 0.20503,-0.68776 0.20757,-1.66332 0.003,-1.20621 -0.11897,-1.75222 -0.59515,-2.66132 -0.65148,-1.24376 -1.4142,-1.90957 -3.17227,-2.76921 -3.28276,-1.60516 -11.12661,-5.099545 -13.82406,-6.158535 -0.93149,-0.365691 -1.1052,-0.409935 -1.73758,-0.442562 -0.84601,-0.04365 -1.35754,0.05177 -2.04147,0.380795 -0.94297,0.453643 -1.68697,1.301927 -2.03666,2.322139 -0.23887,0.696899 -0.23887,1.770803 0,2.467703 0.22718,0.66279 0.63332,1.27267 1.16406,1.748 1.72962,1.54906 12.87025,9.51161 14.18419,10.13788 0.32739,0.15604 0.81148,0.33609 1.07577,0.40009 0.62178,0.15059 1.61757,0.20309 2.18578,0.11523 z"
       id="path40" /><path
       style="fill:#000000"
       d="m 723.62905,128.78537 c 2.32971,-0.49673 4.0755,-2.30027 4.47859,-4.62676 0.13915,-0.80307 0.12037,-1.15997 -0.30668,-5.83039 -0.45734,-5.00162 -0.95182,-9.44752 -1.25315,-11.26716 -0.1483,-0.8955 -0.2336,-1.20571 -0.45453,-1.65283 -0.56067,-1.1347 -1.7292,-1.98157 -3.00019,-2.17435 -1.66609,-0.2527 -3.39475,0.65388 -4.14602,2.17435 -0.22093,0.44712 -0.30624,0.75733 -0.45454,1.65283 -0.384,2.31884 -1.27583,10.84222 -1.59661,15.25914 -0.0955,1.3151 -0.001,2.12436 0.34884,2.9992 0.55805,1.39399 1.77952,2.61189 3.18489,3.17558 0.96226,0.38597 2.21698,0.49985 3.1994,0.29039 z"
       id="path39" /></g></svg>
