<?xml version="1.0" encoding="UTF-8" standalone="no"?>
<!-- Created with Inkscape (http://www.inkscape.org/) -->

<svg
   width="73.665245mm"
   height="67.523056mm"
   viewBox="0 0 73.665245 67.523056"
   version="1.1"
   id="svg1"
   xml:space="preserve"
   xmlns="http://www.w3.org/2000/svg"
   xmlns:svg="http://www.w3.org/2000/svg"><defs
     id="defs1" /><g
     id="layer1"
     transform="translate(-130.39136,-17.118776)"><path
       id="path22"
       style="fill:none;fill-opacity:1;stroke:#000000;stroke-width:4.465;stroke-linecap:butt;stroke-linejoin:round;stroke-dasharray:none;stroke-opacity:1;paint-order:markers fill stroke"
       d="m 161.35534,72.198854 a 21.93162,21.93162 0 0 1 -1.9328,-3.848273 21.93162,21.93162 0 0 1 12.5986,-28.34197 21.93162,21.93162 0 0 1 28.34197,12.598592 v 0 a 21.93162,21.93162 0 0 1 -12.59859,28.341971 21.93162,21.93162 0 0 1 -24.54057,-6.2174" /><path
       id="circle22"
       style="fill:none;fill-opacity:1;stroke:#000000;stroke-width:3.90242;stroke-linecap:butt;stroke-linejoin:round;stroke-dasharray:none;stroke-opacity:1;paint-order:markers fill stroke"
       d="m 164.06077,71.284876 a 19.168284,19.168284 0 0 1 -2.05901,-3.926112 19.168284,19.168284 0 0 1 11.01119,-24.770944 19.168284,19.168284 0 0 1 24.77095,11.011196 v 0 a 19.168284,19.168284 0 0 1 -11.0112,24.770948 19.168284,19.168284 0 0 1 -20.83372,-4.749032" /><path
       id="circle23"
       style="fill:none;fill-opacity:1;stroke:#000000;stroke-width:4.465;stroke-linecap:butt;stroke-linejoin:round;stroke-dasharray:none;stroke-opacity:1;paint-order:markers fill stroke"
       d="m 173.64588,43.891149 a 21.93162,21.93162 0 0 1 1.37952,2.923627 v 0 a 21.93162,21.93162 0 0 1 -12.59859,28.341972 21.93162,21.93162 0 0 1 -28.34197,-12.598593 21.93162,21.93162 0 0 1 12.59859,-28.341971 21.93162,21.93162 0 0 1 23.50245,5.086024" /><path
       id="circle24"
       style="fill:none;fill-opacity:1;stroke:#000000;stroke-width:3.71172;stroke-linecap:round;stroke-linejoin:round;stroke-dasharray:none;stroke-opacity:1;paint-order:markers fill stroke"
       d="m 170.52613,45.89349 c 0.39925,0.725159 0.74864,1.476668 1.04575,2.24931 v 0 c 3.61397,9.398098 -1.075,19.946461 -10.47309,23.560429 -9.39811,3.613973 -19.94647,-1.074994 -23.56044,-10.473095 -3.61397,-9.3981 1.075,-19.946466 10.47311,-23.560432 6.60505,-2.539924 12.6943,-1.213002 18.47264,3.43212" /><path
       style="fill:none;stroke:#000000;stroke-width:4.6;stroke-linecap:round;stroke-linejoin:round;stroke-dasharray:none;stroke-opacity:1"
       d="m 147.22052,36.331731 5.53974,-13.630108 -4.69024,-3.282876 -12.66749,4.871185 -1.33043,5.598077 z"
       id="path24" /></g></svg>
